<svg width="22" height="22" viewBox="0 0 22 22" fill="none" xmlns="http://www.w3.org/2000/svg">
<path d="M16.0417 0H5.95833C4.37883 0.00242442 2.86471 0.630954 1.74783 1.74783C0.630954 2.86471 0.00242442 4.37883 0 5.95833L0 16.0417C0.00242442 17.6212 0.630954 19.1353 1.74783 20.2522C2.86471 21.369 4.37883 21.9976 5.95833 22H16.0417C17.6212 21.9976 19.1353 21.369 20.2522 20.2522C21.369 19.1353 21.9976 17.6212 22 16.0417V5.95833C21.9976 4.37883 21.369 2.86471 20.2522 1.74783C19.1353 0.630954 17.6212 0.00242442 16.0417 0V0ZM11 16.0417C10.0029 16.0417 9.0281 15.746 8.199 15.192C7.3699 14.638 6.7237 13.8506 6.34211 12.9294C5.96052 12.0081 5.86067 10.9944 6.05521 10.0164C6.24974 9.03843 6.72991 8.14009 7.435 7.435C8.14009 6.72991 9.03843 6.24974 10.0164 6.05521C10.9944 5.86067 12.0081 5.96052 12.9294 6.34211C13.8506 6.7237 14.638 7.3699 15.192 8.199C15.746 9.0281 16.0417 10.0029 16.0417 11C16.0417 12.3371 15.5105 13.6195 14.565 14.565C13.6195 15.5105 12.3371 16.0417 11 16.0417ZM16.9583 5.95833C16.6864 5.95833 16.4205 5.87769 16.1944 5.7266C15.9683 5.57552 15.7921 5.36077 15.688 5.10952C15.5839 4.85827 15.5567 4.58181 15.6098 4.31508C15.6628 4.04836 15.7938 3.80336 15.9861 3.61106C16.1784 3.41876 16.4234 3.28781 16.6901 3.23475C16.9568 3.1817 17.2333 3.20893 17.4845 3.313C17.7358 3.41707 17.9505 3.59331 18.1016 3.81942C18.2527 4.04554 18.3333 4.31138 18.3333 4.58333C18.3333 4.94801 18.1885 5.29774 17.9306 5.55561C17.6727 5.81347 17.323 5.95833 16.9583 5.95833Z" fill="#247CFF"/>
</svg>
