<svg width="80" height="80" viewBox="0 0 80 80" fill="none" xmlns="http://www.w3.org/2000/svg">
<rect width="80" height="80" fill="white"/>
<path d="M53.6035 33.6726C53.6035 33.6726 49.3763 46.9493 49.0319 48.0452C48.9066 46.918 45.8066 23.0889 45.8066 23.0889C38.6047 23.0889 34.7532 28.2242 32.7178 33.6413C32.7178 33.6413 27.5825 46.9493 27.1442 48.0766C27.1128 47.0432 26.3613 33.7979 26.3613 33.7979C25.923 27.1595 19.8483 23.1202 14.9321 23.1202L20.8816 59.2239C28.428 59.1926 32.4987 54.0886 34.6279 48.6715C34.6279 48.6715 39.1683 36.9292 39.3562 36.3968C39.3875 36.8978 42.6127 59.2239 42.6127 59.2239C50.1904 59.2239 54.2611 54.4331 56.453 49.2038L67.0681 23.1202C59.5843 23.1202 55.6389 28.2242 53.6035 33.6726Z" fill="#4253FF"/>
</svg>
