<svg width="80" height="80" viewBox="0 0 80 80" fill="none" xmlns="http://www.w3.org/2000/svg">
<rect width="80" height="80" fill="white"/>
<path fill-rule="evenodd" clip-rule="evenodd" d="M56.3104 30.0656C59.8316 30.0656 62.6862 27.211 62.6862 23.6898C62.6862 20.1685 59.8316 17.314 56.3104 17.314C52.7891 17.314 49.9346 20.1685 49.9346 23.6898C49.9346 27.211 52.7891 30.0656 56.3104 30.0656Z" fill="#8055FA"/>
<path fill-rule="evenodd" clip-rule="evenodd" d="M56.3101 46.0789C59.8314 46.0789 62.6859 43.2244 62.6859 39.7032C62.6859 36.1821 59.8314 33.3276 56.3101 33.3276C52.7889 33.3276 49.9343 36.1821 49.9343 39.7032C49.9343 43.2244 52.7889 46.0789 56.3101 46.0789Z" fill="#7550FB"/>
<path fill-rule="evenodd" clip-rule="evenodd" d="M56.3101 62.6867C59.8314 62.6867 62.6859 59.8321 62.6859 56.3109C62.6859 52.7896 59.8314 49.9351 56.3101 49.9351C52.7889 49.9351 49.9343 52.7896 49.9343 56.3109C49.9343 59.8321 52.7889 62.6867 56.3101 62.6867Z" fill="#6A4AFC"/>
<path fill-rule="evenodd" clip-rule="evenodd" d="M39.7037 46.0789C43.2249 46.0789 46.0793 43.2244 46.0793 39.7032C46.0793 36.1821 43.2249 33.3276 39.7037 33.3276C36.1826 33.3276 33.3281 36.1821 33.3281 39.7032C33.3281 43.2244 36.1826 46.0789 39.7037 46.0789Z" fill="#6045FD"/>
<path fill-rule="evenodd" clip-rule="evenodd" d="M39.7035 62.6867C43.2246 62.6867 46.0791 59.8321 46.0791 56.3109C46.0791 52.7896 43.2246 49.9351 39.7035 49.9351C36.1823 49.9351 33.3279 52.7896 33.3279 56.3109C33.3279 59.8321 36.1823 62.6867 39.7035 62.6867Z" fill="#553FFE"/>
<path fill-rule="evenodd" clip-rule="evenodd" d="M23.6895 62.6872C27.2108 62.6872 30.0653 59.8326 30.0653 56.3113C30.0653 52.7901 27.2108 49.9355 23.6895 49.9355C20.1683 49.9355 17.3137 52.7901 17.3137 56.3113C17.3137 59.8326 20.1683 62.6872 23.6895 62.6872Z" fill="#4A3AFF"/>
</svg>
